<svg width="1077" height="322" viewBox="0 0 1077 322" fill="none" xmlns="http://www.w3.org/2000/svg">
<path fill-rule="evenodd" clip-rule="evenodd" d="M151.913 321.23C235.813 321.23 323 253.216 323 169.317C323 85.4175 254.986 0 171.087 0C87.1874 0 0 85.4175 0 169.317C0 253.216 68.0139 321.23 151.913 321.23ZM126.918 120.206C126.918 102.72 141.212 88.4151 159.004 88.4151C176.797 88.4151 191.09 102.72 191.09 120.206C191.09 131.208 182.64 142.934 173.978 148.666C173.924 148.701 173.871 148.737 173.819 148.773C169.142 151.348 167.023 157.072 169.075 162.146L200.105 238.871C200.131 238.937 200.159 239.003 200.187 239.069C200.277 239.441 200.387 239.812 200.519 240.18C202.513 245.74 208.636 248.632 214.197 246.638L240.378 237.252C245.938 235.258 248.83 229.135 246.836 223.574C244.843 218.014 238.719 215.122 233.159 217.116L221.28 221.375C218.754 222.281 215.963 221.031 214.957 218.543L193.781 166.181C192.943 164.109 193.598 161.75 195.263 160.258C206.248 150.413 213.194 136.128 213.194 120.206C213.194 90.3692 188.861 66.3113 159.004 66.3113C129.148 66.3113 104.815 90.3692 104.815 120.206C104.815 138.628 114.102 154.845 128.204 164.552C130.189 165.918 131.129 168.421 130.319 170.691L105.912 239.128C103.927 244.692 106.829 250.811 112.393 252.795C113.796 253.295 115.234 253.485 116.633 253.399C117.306 253.543 118.003 253.623 118.717 253.633L148.666 254.061C154.573 254.145 159.429 249.426 159.513 243.519C159.598 237.613 154.878 232.757 148.972 232.672L138.001 232.516C134.574 232.467 132.212 229.064 133.363 225.836L155.238 164.499C157.222 158.935 154.321 152.817 148.757 150.832C148.714 150.817 148.671 150.802 148.627 150.787C137.637 145.689 126.918 132.902 126.918 120.206Z" fill="white"/>
<path d="M924.307 107.534C927.911 107.533 931.434 106.461 934.431 104.456C937.43 102.449 939.768 99.5956 941.149 96.2577C942.529 92.9198 942.89 89.2469 942.186 85.7034C941.483 82.1599 939.745 78.905 937.195 76.3503C934.644 73.7956 931.395 72.0559 927.857 71.351C924.319 70.6462 920.652 71.0078 917.32 72.3904C913.987 73.773 911.139 76.1144 909.135 79.1184C907.131 82.1224 906.061 85.6543 906.061 89.2672C906.076 94.1091 908.003 98.7483 911.422 102.171C914.841 105.594 919.473 107.522 924.307 107.534Z" fill="white"/>
<path d="M518.281 186.312C518.281 218.508 541.311 239.976 570.714 239.976C600.118 239.976 623.148 218.512 623.148 186.312V134.935C623.148 130.696 621.467 126.63 618.474 123.633C615.482 120.635 611.422 118.951 607.19 118.951C602.958 118.951 598.899 120.635 595.906 123.633C592.913 126.63 591.232 130.696 591.232 134.935V187.453C591.232 202.296 582.113 210.287 570.714 210.287C559.316 210.287 550.197 202.296 550.197 187.453V134.935C550.197 130.696 548.516 126.63 545.523 123.633C542.531 120.635 538.471 118.951 534.239 118.951C530.007 118.951 525.948 120.635 522.955 123.633C519.962 126.63 518.281 130.696 518.281 134.935V186.312Z" fill="white"/>
<path d="M655.179 235.29C652.186 232.293 650.505 228.227 650.505 223.988V172.611C650.505 140.411 673.53 118.947 702.938 118.947C732.347 118.947 755.372 140.411 755.372 172.611V223.988C755.372 228.227 753.691 232.293 750.698 235.29C747.705 238.288 743.646 239.972 739.414 239.972C735.181 239.972 731.122 238.288 728.13 235.29C725.137 232.293 723.456 228.227 723.456 223.988V171.47C723.456 156.628 714.337 148.636 702.938 148.636C691.54 148.636 682.421 156.623 682.421 171.47V223.988C682.421 228.227 680.74 232.293 677.747 235.29C674.754 238.288 670.695 239.972 666.463 239.972C662.23 239.972 658.171 238.288 655.179 235.29Z" fill="white"/>
<path d="M839.041 239.972C847.071 240.225 855.063 238.769 862.49 235.699C869.917 232.629 876.609 228.015 882.124 222.161C884.812 219.294 886.424 215.582 886.684 211.657C886.709 209.602 886.316 207.564 885.528 205.666C884.741 203.768 883.576 202.051 882.104 200.62C880.632 199.188 878.884 198.072 876.967 197.339C875.05 196.606 873.004 196.273 870.954 196.359C865.464 196.359 862.166 199.23 858.74 202.212C858.183 202.698 857.622 203.186 857.047 203.666C852.027 207.958 845.638 210.308 839.038 210.287C831.253 209.734 823.966 206.245 818.647 200.525C813.327 194.805 810.369 187.279 810.369 179.462C810.369 171.644 813.327 164.118 818.647 158.398C823.966 152.678 831.253 149.189 839.038 148.636C845.758 148.557 852.264 151.001 857.275 155.486C857.737 155.871 858.187 156.257 858.632 156.637C862.137 159.638 865.289 162.336 870.954 162.336C872.991 162.447 875.029 162.139 876.942 161.43C878.856 160.721 880.604 159.626 882.078 158.214C883.552 156.801 884.722 155.101 885.514 153.218C886.306 151.335 886.704 149.309 886.684 147.266C886.431 143.272 884.822 139.485 882.124 136.534C874.373 127.172 858.187 118.951 839.038 118.951C831.042 118.854 823.106 120.347 815.691 123.345C808.275 126.342 801.528 130.785 795.839 136.414C790.151 142.043 785.634 148.748 782.552 156.138C779.471 163.529 777.884 171.459 777.885 179.468C777.886 187.478 779.474 195.408 782.558 202.798C785.641 210.188 790.159 216.891 795.849 222.519C801.538 228.147 808.287 232.588 815.703 235.584C823.116 238.578 831.049 240.07 839.041 239.972Z" fill="white"/>
<path d="M913.015 235.29C910.022 232.293 908.341 228.227 908.341 223.988V134.935C908.341 130.696 910.022 126.63 913.015 123.633C916.008 120.635 920.067 118.951 924.299 118.951C928.531 118.951 932.59 120.635 935.583 123.633C938.576 126.63 940.257 130.696 940.257 134.935V223.988C940.257 228.227 938.576 232.293 935.583 235.29C932.59 238.288 928.531 239.972 924.299 239.972C920.067 239.972 916.008 238.288 913.015 235.29Z" fill="white"/>
<path fill-rule="evenodd" clip-rule="evenodd" d="M1069.89 211.891C1069.88 215.323 1068.75 218.65 1066.7 221.341L1066.72 221.318C1056.68 233.385 1041.39 240 1022.21 240C985.929 240 961.746 215.903 961.746 180.466C961.746 145.029 985.929 120.932 1021.06 120.932C1052.55 120.932 1076.96 144.556 1076.96 171.73V173.619C1077.11 175.843 1076.81 178.074 1076.06 180.165C1075.32 182.255 1074.15 184.158 1072.64 185.745C1071.13 187.332 1069.31 188.567 1067.3 189.369C1065.29 190.17 1063.14 190.519 1060.99 190.393H993.686C995.199 196.917 998.892 202.677 1004.11 206.655C1009.33 210.632 1015.74 212.571 1022.2 212.128C1026.59 212.274 1030.95 211.49 1035.03 209.825C1039.11 208.159 1042.82 205.646 1045.93 202.442C1047.27 201.03 1048.87 199.906 1050.63 199.136C1052.4 198.366 1054.29 197.964 1056.2 197.953C1058.01 197.815 1059.83 198.08 1061.54 198.729C1063.24 199.377 1064.8 200.395 1066.09 201.714C1067.39 203.033 1068.4 204.623 1069.05 206.378C1069.71 208.133 1069.99 210.013 1069.89 211.891ZM1047.3 168.181C1044.79 156.369 1034.07 148.809 1021.07 148.809C1007.63 148.809 996.218 156.369 993.69 168.181H1047.3Z" fill="white"/>
<path d="M391.674 235.29C388.681 232.293 387 228.227 387 223.988V91.5506C387 87.3114 388.681 83.2458 391.674 80.2483C394.667 77.2507 398.726 75.5668 402.958 75.5668C407.19 75.5668 411.249 77.2507 414.242 80.2483C417.235 83.2458 418.916 87.3114 418.916 91.5506V223.988C418.916 228.227 417.235 232.293 414.242 235.29C411.249 238.288 407.19 239.972 402.958 239.972C398.726 239.972 394.667 238.288 391.674 235.29Z" fill="white"/>
<path d="M472.167 239.427C468.999 238.578 466.167 236.776 464.054 234.263L427.807 191.107C425.044 187.854 423.511 183.732 423.476 179.462C423.633 175.461 425.071 171.618 427.579 168.501L464.738 124.203C466.036 122.544 467.698 121.206 469.596 120.295C471.494 119.385 473.577 118.925 475.681 118.951C477.654 118.859 479.625 119.168 481.475 119.861C483.325 120.554 485.015 121.615 486.443 122.982C487.871 124.348 489.007 125.991 489.783 127.81C490.559 129.629 490.957 131.587 490.955 133.565C491.04 137.076 489.821 140.493 487.536 143.155L458.355 177.863L488.448 213.713C490.875 216.593 492.243 220.22 492.323 223.988C492.311 227.273 491.292 230.475 489.405 233.161C487.518 235.847 484.853 237.889 481.77 239.009C478.687 240.13 475.335 240.276 472.167 239.427Z" fill="white"/>
</svg>
