<svg width="133" height="44" viewBox="0 0 133 44" fill="none" xmlns="http://www.w3.org/2000/svg">
<path d="M114.888 15.1522C115.311 15.152 115.724 15.0263 116.075 14.791C116.427 14.5555 116.701 14.2207 116.863 13.8291C117.025 13.4375 117.067 13.0066 116.985 12.5908C116.902 12.1751 116.698 11.7932 116.399 11.4935C116.1 11.1937 115.719 10.9896 115.304 10.9069C114.889 10.8242 114.459 10.8666 114.068 11.0289C113.678 11.1911 113.344 11.4658 113.109 11.8182C112.874 12.1707 112.748 12.5851 112.748 13.0089C112.75 13.577 112.976 14.1213 113.377 14.5229C113.778 14.9245 114.321 15.1507 114.888 15.1522Z" fill="#2C1A32"/>
<path d="M67.2718 24.3948C67.2718 28.1723 69.9725 30.6911 73.4208 30.6911C76.8691 30.6911 79.5699 28.1728 79.5699 24.3948V18.367C79.5699 17.8697 79.3727 17.3926 79.0218 17.041C78.6708 16.6893 78.1948 16.4917 77.6984 16.4917C77.2021 16.4917 76.7261 16.6893 76.3751 17.041C76.0242 17.3926 75.827 17.8697 75.827 18.367V24.5288C75.827 26.2702 74.7576 27.2078 73.4208 27.2078C72.0841 27.2078 71.0147 26.2702 71.0147 24.5288V18.367C71.0147 17.8697 70.8175 17.3926 70.4666 17.041C70.1156 16.6893 69.6396 16.4917 69.1432 16.4917C68.6469 16.4917 68.1709 16.6893 67.8199 17.041C67.4689 17.3926 67.2718 17.8697 67.2718 18.367V24.3948Z" fill="#2C1A32"/>
<path d="M83.3262 30.1413C82.9753 29.7896 82.7781 29.3126 82.7781 28.8153V22.7874C82.7781 19.0094 85.4783 16.4912 88.9272 16.4912C92.376 16.4912 95.0762 19.0094 95.0762 22.7874V28.8153C95.0762 29.3126 94.8791 29.7896 94.5281 30.1413C94.1772 30.493 93.7011 30.6906 93.2048 30.6906C92.7084 30.6906 92.2324 30.493 91.8815 30.1413C91.5305 29.7896 91.3333 29.3126 91.3333 28.8153V22.6535C91.3333 20.9121 90.2639 19.9744 88.9272 19.9744C87.5904 19.9744 86.521 20.9116 86.521 22.6535V28.8153C86.521 29.3126 86.3239 29.7896 85.9729 30.1413C85.6219 30.493 85.1459 30.6906 84.6496 30.6906C84.1532 30.6906 83.6772 30.493 83.3262 30.1413Z" fill="#2C1A32"/>
<path d="M104.888 30.6906C105.83 30.7203 106.767 30.5495 107.638 30.1893C108.509 29.8291 109.294 29.2877 109.941 28.6009C110.256 28.2646 110.445 27.829 110.476 27.3686C110.479 27.1275 110.433 26.8883 110.34 26.6656C110.248 26.443 110.111 26.2415 109.939 26.0735C109.766 25.9056 109.561 25.7746 109.336 25.6886C109.111 25.6027 108.871 25.5636 108.631 25.5736C107.987 25.5736 107.6 25.9105 107.199 26.2604C107.133 26.3173 107.067 26.3747 107 26.4309C106.411 26.9346 105.662 27.2102 104.888 27.2078C103.975 27.1429 103.121 26.7336 102.497 26.0625C101.873 25.3914 101.526 24.5083 101.526 23.5911C101.526 22.674 101.873 21.7909 102.497 21.1198C103.121 20.4487 103.975 20.0394 104.888 19.9744C105.676 19.9652 106.439 20.2519 107.027 20.7781C107.081 20.8234 107.134 20.8686 107.186 20.9132C107.597 21.2653 107.967 21.5819 108.631 21.5819C108.87 21.5949 109.109 21.5587 109.333 21.4755C109.558 21.3924 109.763 21.2639 109.936 21.0982C110.108 20.9325 110.246 20.733 110.338 20.5121C110.431 20.2911 110.478 20.0534 110.476 19.8137C110.446 19.3451 110.257 18.9008 109.941 18.5546C109.032 17.4561 107.134 16.4917 104.888 16.4917C103.95 16.4803 103.02 16.6555 102.15 17.0072C101.28 17.3589 100.489 17.8801 99.822 18.5405C99.1549 19.201 98.6253 19.9876 98.2638 20.8547C97.9024 21.7218 97.7164 22.6522 97.7165 23.592C97.7166 24.5317 97.9028 25.462 98.2644 26.3291C98.6261 27.1961 99.1559 27.9826 99.8231 28.6429C100.49 29.3032 101.282 29.8242 102.152 30.1757C103.021 30.5271 103.951 30.7021 104.888 30.6906Z" fill="#2C1A32"/>
<path d="M113.564 30.1413C113.213 29.7896 113.015 29.3126 113.015 28.8153V18.367C113.015 17.8697 113.213 17.3926 113.564 17.041C113.915 16.6893 114.391 16.4917 114.887 16.4917C115.383 16.4917 115.859 16.6893 116.21 17.041C116.561 17.3926 116.758 17.8697 116.758 18.367V28.8153C116.758 29.3126 116.561 29.7896 116.21 30.1413C115.859 30.493 115.383 30.6906 114.887 30.6906C114.391 30.6906 113.915 30.493 113.564 30.1413Z" fill="#2C1A32"/>
<path fill-rule="evenodd" clip-rule="evenodd" d="M131.961 27.396C131.959 27.7986 131.827 28.189 131.586 28.5047L131.589 28.502C130.412 29.9178 128.619 30.6939 126.369 30.6939C122.114 30.6939 119.278 27.8667 119.278 23.709C119.278 19.5513 122.114 16.724 126.235 16.724C129.927 16.724 132.79 19.4958 132.79 22.684V22.9057C132.808 23.1665 132.772 23.4283 132.685 23.6736C132.597 23.9189 132.46 24.1421 132.283 24.3283C132.106 24.5145 131.893 24.6595 131.657 24.7535C131.422 24.8476 131.169 24.8885 130.917 24.8737H123.024C123.202 25.6392 123.635 26.315 124.247 26.7816C124.859 27.2483 125.61 27.4757 126.369 27.4237C126.883 27.4409 127.395 27.349 127.873 27.1535C128.352 26.9581 128.787 26.6633 129.151 26.2873C129.308 26.1217 129.496 25.9899 129.703 25.8995C129.909 25.8091 130.131 25.7619 130.356 25.7607C130.568 25.7445 130.781 25.7756 130.981 25.8517C131.181 25.9278 131.364 26.0472 131.515 26.202C131.667 26.3567 131.786 26.5433 131.863 26.7492C131.939 26.9551 131.973 27.1756 131.961 27.396ZM129.312 22.2676C129.018 20.8817 127.76 19.9948 126.235 19.9948C124.659 19.9948 123.321 20.8817 123.025 22.2676H129.312Z" fill="#2C1A32"/>
<path d="M52.4241 30.1413C52.0731 29.7896 51.876 29.3126 51.876 28.8153V13.2769C51.876 12.7795 52.0731 12.3025 52.4241 11.9508C52.7751 11.5991 53.2511 11.4015 53.7474 11.4015C54.2438 11.4015 54.7198 11.5991 55.0707 11.9508C55.4217 12.3025 55.6189 12.7795 55.6189 13.2769V28.8153C55.6189 29.3126 55.4217 29.7896 55.0707 30.1413C54.7198 30.493 54.2438 30.6906 53.7474 30.6906C53.2511 30.6906 52.7751 30.493 52.4241 30.1413Z" fill="#2C1A32"/>
<path d="M61.8638 30.6267C61.4923 30.5271 61.1602 30.3156 60.9124 30.0208L56.6616 24.9574C56.3375 24.5758 56.1577 24.0922 56.1536 23.5911C56.172 23.1218 56.3407 22.6709 56.6348 22.3052L60.9926 17.1079C61.1448 16.9132 61.3398 16.7563 61.5624 16.6494C61.7849 16.5425 62.0291 16.4885 62.2759 16.4917C62.5073 16.4808 62.7384 16.5171 62.9554 16.5984C63.1723 16.6797 63.3705 16.8043 63.538 16.9646C63.7055 17.1249 63.8387 17.3176 63.9297 17.531C64.0207 17.7445 64.0674 17.9742 64.0672 18.2063C64.0771 18.6182 63.9342 19.0191 63.6661 19.3315L60.244 23.4036L63.7731 27.6097C64.0578 27.9476 64.2182 28.3731 64.2276 28.8153C64.2261 29.2007 64.1067 29.5763 63.8854 29.8915C63.6641 30.2067 63.3515 30.4462 62.99 30.5777C62.6284 30.7092 62.2353 30.7262 61.8638 30.6267Z" fill="#2C1A32"/>
<path d="M37.9889 38.9769C32.752 46.244 20.201 44.6343 14.3353 40.3857C8.46956 36.137 9.09835 24.172 14.3353 16.9049C19.5722 9.6379 29.7218 9.44743 35.5875 13.6961C41.4532 17.9447 46.7198 29.7948 37.9889 38.9769Z" fill="#F5C577"/>
<path d="M43.1476 15.4068C44.1072 21.3466 40.0497 29.4586 36.0696 32.22C32.0894 34.9814 28.6667 31.7846 23.8784 31.7846C14.2198 31.7846 7.31104 26.7406 7.31104 17.8952C7.31104 9.04969 16.3813 -1.17057e-05 26.0398 -1.17057e-05C35.6984 -1.17057e-05 41.6994 6.44238 43.1476 15.4068Z" fill="#1AA294"/>
<path d="M3.69391 12.5321C7.09607 7.57496 15.6213 4.52519 20.4014 5.28811C25.1814 6.05104 25.4505 10.7331 28.9105 14.0515C35.8898 20.7451 37.4043 29.1779 31.3053 35.5696C25.2062 41.9614 12.4122 42.2148 5.43292 35.5212C-1.54638 28.8276 -1.44063 20.0134 3.69391 12.5321Z" fill="#F07A5A"/>
<path d="M40.8039 21.7918C40.8039 31.4279 33.7896 39.1164 22.5668 39.1164C12.968 39.1164 5.60498 33.4097 5.60498 23.7736C5.60498 14.1375 12.968 4.27539 22.5668 4.27539C32.1656 4.27539 40.8039 12.1557 40.8039 21.7918Z" fill="#2C1A32"/>
<path d="M21.9063 13.2003C19.8338 13.2003 18.1689 14.871 18.1689 16.9133C18.1689 18.3961 19.4174 19.8895 20.6976 20.485C20.7026 20.4867 20.7076 20.4885 20.7127 20.4903C21.3607 20.7221 21.6987 21.4367 21.4676 22.0865L18.8411 29.4709C18.7455 29.7397 18.9417 30.0231 19.2263 30.0272L20.7377 30.0488C21.4257 30.0587 21.9754 30.6259 21.9656 31.3157C21.9557 32.0055 21.3901 32.5567 20.7021 32.5469L17.2136 32.4969C17.1304 32.4957 17.0492 32.4864 16.9708 32.4696C16.8079 32.4796 16.6404 32.4575 16.477 32.399C15.8289 32.1673 15.4909 31.4526 15.722 30.8028L18.6117 22.6784C18.6789 22.4895 18.6013 22.2805 18.434 22.1704C16.7269 21.0468 15.5942 19.1148 15.5942 16.9133C15.5942 13.4285 18.4286 10.6187 21.9063 10.6187C25.384 10.6187 28.2183 13.4285 28.2183 16.9133C28.2183 18.8184 27.3691 20.523 26.0348 21.6747C25.8941 21.7961 25.8401 21.993 25.9097 22.1655L28.4839 28.5478C28.5674 28.755 28.7992 28.8591 29.009 28.7837L30.5438 28.2319C31.1915 27.9991 31.9047 28.3368 32.1369 28.9862C32.3692 29.6356 32.0324 30.3508 31.3847 30.5837L28.3351 31.68C27.6874 31.9128 26.9741 31.5751 26.7419 30.9257C26.7265 30.8826 26.7137 30.8393 26.7032 30.7959C26.6999 30.7882 26.6968 30.7806 26.6936 30.7728L23.0793 21.8117C22.8403 21.2191 23.0871 20.5505 23.6319 20.2497C23.638 20.2455 23.6441 20.2414 23.6504 20.2372C24.6594 19.5679 25.6437 18.1983 25.6437 16.9133C25.6437 14.871 23.9787 13.2003 21.9063 13.2003Z" fill="white"/>
</svg>
