<svg width="168" height="212" viewBox="0 0 168 212" fill="none" xmlns="http://www.w3.org/2000/svg">
<path d="M130.2 100.208C122.91 92.9178 119.609 84.3979 126.9 77.1076C134.19 69.8173 148.073 70.0648 155.363 77.3551C162.653 84.6454 160.591 96.2179 153.3 103.508C146.01 110.799 137.49 107.498 130.2 100.208Z" fill="#2A88AA"/>
<path d="M114.769 108.21C114.769 163.847 66.6552 209.189 7 209.189C-52.6552 209.189 -100.769 163.847 -100.769 108.21C-100.769 52.5725 -52.6552 7.23095 7 7.23095C66.6552 7.23095 114.769 52.5725 114.769 108.21Z" stroke="#413147" stroke-width="4.4619"/>
<g opacity="0.5">
<circle cx="55.2674" cy="1.26737" r="1.26737" fill="#7A623C"/>
<circle cx="55.2674" cy="8.87162" r="1.26737" fill="#7A623C"/>
<circle cx="55.2674" cy="16.4759" r="1.26737" fill="#7A623C"/>
<circle cx="55.2674" cy="24.0801" r="1.26737" fill="#7A623C"/>
<circle cx="55.2674" cy="31.6844" r="1.26737" fill="#7A623C"/>
<circle cx="55.2674" cy="39.2884" r="1.26737" fill="#7A623C"/>
<circle cx="55.2674" cy="46.8926" r="1.26737" fill="#7A623C"/>
<circle cx="55.2674" cy="54.4969" r="1.26737" fill="#7A623C"/>
<circle cx="55.2674" cy="62.1011" r="1.26737" fill="#7A623C"/>
<circle cx="55.2674" cy="69.7054" r="1.26737" fill="#7A623C"/>
<circle cx="55.2674" cy="77.3096" r="1.26737" fill="#7A623C"/>
<circle cx="55.2674" cy="84.9139" r="1.26737" fill="#7A623C"/>
<circle cx="62.8716" cy="1.26737" r="1.26737" fill="#7A623C"/>
<circle cx="62.8716" cy="8.87162" r="1.26737" fill="#7A623C"/>
<circle cx="62.8716" cy="16.4759" r="1.26737" fill="#7A623C"/>
<circle cx="62.8716" cy="24.0801" r="1.26737" fill="#7A623C"/>
<circle cx="62.8716" cy="31.6844" r="1.26737" fill="#7A623C"/>
<circle cx="62.8716" cy="39.2884" r="1.26737" fill="#7A623C"/>
<circle cx="62.8716" cy="46.8926" r="1.26737" fill="#7A623C"/>
<circle cx="62.8716" cy="54.4969" r="1.26737" fill="#7A623C"/>
<circle cx="62.8716" cy="62.1011" r="1.26737" fill="#7A623C"/>
<circle cx="62.8716" cy="69.7054" r="1.26737" fill="#7A623C"/>
<circle cx="62.8716" cy="77.3096" r="1.26737" fill="#7A623C"/>
<circle cx="62.8716" cy="84.9139" r="1.26737" fill="#7A623C"/>
<circle cx="70.4758" cy="1.26737" r="1.26737" fill="#7A623C"/>
<circle cx="70.4758" cy="8.87162" r="1.26737" fill="#7A623C"/>
<circle cx="70.4758" cy="16.4759" r="1.26737" fill="#7A623C"/>
<circle cx="70.4758" cy="24.0801" r="1.26737" fill="#7A623C"/>
<circle cx="70.4758" cy="31.6844" r="1.26737" fill="#7A623C"/>
<circle cx="70.4758" cy="39.2884" r="1.26737" fill="#7A623C"/>
<circle cx="70.4758" cy="46.8926" r="1.26737" fill="#7A623C"/>
<circle cx="70.4758" cy="54.4969" r="1.26737" fill="#7A623C"/>
<circle cx="70.4758" cy="62.1011" r="1.26737" fill="#7A623C"/>
<circle cx="70.4758" cy="69.7054" r="1.26737" fill="#7A623C"/>
<circle cx="70.4758" cy="77.3096" r="1.26737" fill="#7A623C"/>
<circle cx="70.4758" cy="84.9139" r="1.26737" fill="#7A623C"/>
<circle cx="78.0801" cy="1.26737" r="1.26737" fill="#7A623C"/>
<circle cx="78.0801" cy="8.87162" r="1.26737" fill="#7A623C"/>
<circle cx="78.0801" cy="16.4759" r="1.26737" fill="#7A623C"/>
<circle cx="78.0801" cy="24.0801" r="1.26737" fill="#7A623C"/>
<circle cx="78.0801" cy="31.6844" r="1.26737" fill="#7A623C"/>
<circle cx="78.0801" cy="39.2884" r="1.26737" fill="#7A623C"/>
<circle cx="78.0801" cy="46.8926" r="1.26737" fill="#7A623C"/>
<circle cx="78.0801" cy="54.4969" r="1.26737" fill="#7A623C"/>
<circle cx="78.0801" cy="62.1011" r="1.26737" fill="#7A623C"/>
<circle cx="78.0801" cy="69.7054" r="1.26737" fill="#7A623C"/>
<circle cx="78.0801" cy="77.3096" r="1.26737" fill="#7A623C"/>
<circle cx="78.0801" cy="84.9139" r="1.26737" fill="#7A623C"/>
<circle cx="85.6843" cy="1.26737" r="1.26737" fill="#7A623C"/>
<circle cx="85.6843" cy="8.87162" r="1.26737" fill="#7A623C"/>
<circle cx="85.6843" cy="16.4759" r="1.26737" fill="#7A623C"/>
<circle cx="85.6843" cy="24.0801" r="1.26737" fill="#7A623C"/>
<circle cx="85.6843" cy="31.6844" r="1.26737" fill="#7A623C"/>
<circle cx="85.6843" cy="39.2884" r="1.26737" fill="#7A623C"/>
<circle cx="85.6843" cy="46.8926" r="1.26737" fill="#7A623C"/>
<circle cx="85.6843" cy="54.4969" r="1.26737" fill="#7A623C"/>
<circle cx="85.6843" cy="62.1011" r="1.26737" fill="#7A623C"/>
<circle cx="85.6843" cy="69.7054" r="1.26737" fill="#7A623C"/>
<circle cx="85.6843" cy="77.3096" r="1.26737" fill="#7A623C"/>
<circle cx="85.6843" cy="84.9139" r="1.26737" fill="#7A623C"/>
<circle cx="93.2885" cy="1.26737" r="1.26737" fill="#7A623C"/>
<circle cx="93.2885" cy="8.87162" r="1.26737" fill="#7A623C"/>
<circle cx="93.2885" cy="16.4759" r="1.26737" fill="#7A623C"/>
<circle cx="93.2885" cy="24.0801" r="1.26737" fill="#7A623C"/>
<circle cx="93.2885" cy="31.6844" r="1.26737" fill="#7A623C"/>
<circle cx="93.2885" cy="39.2884" r="1.26737" fill="#7A623C"/>
<circle cx="93.2885" cy="46.8926" r="1.26737" fill="#7A623C"/>
<circle cx="93.2885" cy="54.4969" r="1.26737" fill="#7A623C"/>
<circle cx="93.2885" cy="62.1011" r="1.26737" fill="#7A623C"/>
<circle cx="93.2885" cy="69.7054" r="1.26737" fill="#7A623C"/>
<circle cx="93.2885" cy="77.3096" r="1.26737" fill="#7A623C"/>
<circle cx="93.2885" cy="84.9139" r="1.26737" fill="#7A623C"/>
<circle cx="100.893" cy="1.26737" r="1.26737" fill="#7A623C"/>
<circle cx="100.893" cy="8.87162" r="1.26737" fill="#7A623C"/>
<circle cx="100.893" cy="16.4759" r="1.26737" fill="#7A623C"/>
<circle cx="100.893" cy="24.0801" r="1.26737" fill="#7A623C"/>
<circle cx="100.893" cy="31.6844" r="1.26737" fill="#7A623C"/>
<circle cx="100.893" cy="39.2884" r="1.26737" fill="#7A623C"/>
<circle cx="100.893" cy="46.8926" r="1.26737" fill="#7A623C"/>
<circle cx="100.893" cy="54.4969" r="1.26737" fill="#7A623C"/>
<circle cx="100.893" cy="62.1011" r="1.26737" fill="#7A623C"/>
<circle cx="100.893" cy="69.7054" r="1.26737" fill="#7A623C"/>
<circle cx="100.893" cy="77.3096" r="1.26737" fill="#7A623C"/>
<circle cx="100.893" cy="84.9139" r="1.26737" fill="#7A623C"/>
<circle cx="108.497" cy="1.26737" r="1.26737" fill="#7A623C"/>
<circle cx="116.101" cy="1.26737" r="1.26737" fill="#7A623C"/>
<circle cx="123.705" cy="1.26737" r="1.26737" fill="#7A623C"/>
<circle cx="131.31" cy="1.26737" r="1.26737" fill="#7A623C"/>
<circle cx="138.914" cy="1.26737" r="1.26737" fill="#7A623C"/>
<circle cx="146.518" cy="1.26737" r="1.26737" fill="#7A623C"/>
<circle cx="108.497" cy="8.87162" r="1.26737" fill="#7A623C"/>
<circle cx="116.101" cy="8.87162" r="1.26737" fill="#7A623C"/>
<circle cx="123.705" cy="8.87162" r="1.26737" fill="#7A623C"/>
<circle cx="131.31" cy="8.87162" r="1.26737" fill="#7A623C"/>
<circle cx="138.914" cy="8.87162" r="1.26737" fill="#7A623C"/>
<circle cx="146.518" cy="8.87162" r="1.26737" fill="#7A623C"/>
<circle cx="108.497" cy="16.4759" r="1.26737" fill="#7A623C"/>
<circle cx="116.101" cy="16.4759" r="1.26737" fill="#7A623C"/>
<circle cx="123.705" cy="16.4759" r="1.26737" fill="#7A623C"/>
<circle cx="131.31" cy="16.4759" r="1.26737" fill="#7A623C"/>
<circle cx="138.914" cy="16.4759" r="1.26737" fill="#7A623C"/>
<circle cx="146.518" cy="16.4759" r="1.26737" fill="#7A623C"/>
<circle cx="108.497" cy="24.0801" r="1.26737" fill="#7A623C"/>
<circle cx="116.101" cy="24.0801" r="1.26737" fill="#7A623C"/>
<circle cx="123.705" cy="24.0801" r="1.26737" fill="#7A623C"/>
<circle cx="131.31" cy="24.0801" r="1.26737" fill="#7A623C"/>
<circle cx="138.914" cy="24.0801" r="1.26737" fill="#7A623C"/>
<circle cx="146.518" cy="24.0801" r="1.26737" fill="#7A623C"/>
<circle cx="108.497" cy="31.6844" r="1.26737" fill="#7A623C"/>
<circle cx="116.101" cy="31.6844" r="1.26737" fill="#7A623C"/>
<circle cx="123.705" cy="31.6844" r="1.26737" fill="#7A623C"/>
<circle cx="131.31" cy="31.6844" r="1.26737" fill="#7A623C"/>
<circle cx="138.914" cy="31.6844" r="1.26737" fill="#7A623C"/>
<circle cx="146.518" cy="31.6844" r="1.26737" fill="#7A623C"/>
<circle cx="108.497" cy="39.2884" r="1.26737" fill="#7A623C"/>
<circle cx="116.101" cy="39.2884" r="1.26737" fill="#7A623C"/>
<circle cx="123.705" cy="39.2884" r="1.26737" fill="#7A623C"/>
<circle cx="131.31" cy="39.2884" r="1.26737" fill="#7A623C"/>
<circle cx="138.914" cy="39.2884" r="1.26737" fill="#7A623C"/>
<circle cx="146.518" cy="39.2884" r="1.26737" fill="#7A623C"/>
<circle cx="108.497" cy="46.8926" r="1.26737" fill="#7A623C"/>
<circle cx="116.101" cy="46.8926" r="1.26737" fill="#7A623C"/>
<circle cx="123.705" cy="46.8926" r="1.26737" fill="#7A623C"/>
<circle cx="131.31" cy="46.8926" r="1.26737" fill="#7A623C"/>
<circle cx="138.914" cy="46.8926" r="1.26737" fill="#7A623C"/>
<circle cx="146.518" cy="46.8926" r="1.26737" fill="#7A623C"/>
<circle cx="108.497" cy="54.4969" r="1.26737" fill="#7A623C"/>
<circle cx="116.101" cy="54.4969" r="1.26737" fill="#7A623C"/>
<circle cx="123.705" cy="54.4969" r="1.26737" fill="#7A623C"/>
<circle cx="131.31" cy="54.4969" r="1.26737" fill="#7A623C"/>
<circle cx="138.914" cy="54.4969" r="1.26737" fill="#7A623C"/>
<circle cx="146.518" cy="54.4969" r="1.26737" fill="#7A623C"/>
<circle cx="108.497" cy="62.1011" r="1.26737" fill="#7A623C"/>
<circle cx="116.101" cy="62.1011" r="1.26737" fill="#7A623C"/>
<circle cx="123.705" cy="62.1011" r="1.26737" fill="#7A623C"/>
<circle cx="131.31" cy="62.1011" r="1.26737" fill="#7A623C"/>
<circle cx="138.914" cy="62.1011" r="1.26737" fill="#7A623C"/>
<circle cx="146.518" cy="62.1011" r="1.26737" fill="#7A623C"/>
<circle cx="108.497" cy="69.7054" r="1.26737" fill="#7A623C"/>
<circle cx="116.101" cy="69.7054" r="1.26737" fill="#7A623C"/>
<circle cx="123.705" cy="69.7054" r="1.26737" fill="#7A623C"/>
<circle cx="131.31" cy="69.7054" r="1.26737" fill="#7A623C"/>
<circle cx="138.914" cy="69.7054" r="1.26737" fill="#7A623C"/>
<circle cx="146.518" cy="69.7054" r="1.26737" fill="#7A623C"/>
<circle cx="108.497" cy="77.3096" r="1.26737" fill="#7A623C"/>
<circle cx="116.101" cy="77.3096" r="1.26737" fill="#7A623C"/>
<circle cx="123.705" cy="77.3096" r="1.26737" fill="#7A623C"/>
<circle cx="131.31" cy="77.3096" r="1.26737" fill="#7A623C"/>
<circle cx="138.914" cy="77.3096" r="1.26737" fill="#7A623C"/>
<circle cx="146.518" cy="77.3096" r="1.26737" fill="#7A623C"/>
<circle cx="108.497" cy="84.9139" r="1.26737" fill="#7A623C"/>
<circle cx="116.101" cy="84.9139" r="1.26737" fill="#7A623C"/>
<circle cx="123.705" cy="84.9139" r="1.26737" fill="#7A623C"/>
<circle cx="131.31" cy="84.9139" r="1.26737" fill="#7A623C"/>
<circle cx="138.914" cy="84.9139" r="1.26737" fill="#7A623C"/>
<circle cx="146.518" cy="84.9139" r="1.26737" fill="#7A623C"/>
</g>
</svg>
