<?xml version="1.0" encoding="UTF-8"?>
<svg width="36px" height="36px" viewBox="0 0 36 36" version="1.1" xmlns="http://www.w3.org/2000/svg" xmlns:xlink="http://www.w3.org/1999/xlink">
    <!-- Generator: Sketch 55.2 (78181) - https://sketchapp.com -->
    <title>logo-dark</title>
    <desc>Created with Sketch.</desc>
    <g id="logo" stroke="none" stroke-width="1" fill="none" fill-rule="evenodd">
        <rect id="base" fill="#06C25E" x="0" y="0" width="36" height="36" rx="18"></rect>
        <path d="M18,12.6995857 C18.746369,11.6675416 19.9345099,11 21.2727273,11 L26.1818182,11 C26.6336875,11 27,11.380558 27,11.85 L27,24.6 C27,25.069442 26.6336875,25.45 26.1818182,25.45 L20.4545455,25.45 C19.5508068,25.45 18.8181818,26.2111159 18.8181818,27.15 C18.8181818,28.2833333 17.1818182,28.2833333 17.1818182,27.15 C17.1818182,26.2111159 16.4491932,25.45 15.5454545,25.45 L9.81818182,25.45 C9.36631248,25.45 9,25.069442 9,24.6 L9,11.85 C9,11.380558 9.36631248,11 9.81818182,11 L14.7272727,11 C16.0654901,11 17.253631,11.6675416 18,12.6995857 Z M18.8181818,15.25 L18.8181818,24.2048595 C19.2995564,23.9155703 19.8584392,23.75 20.4545455,23.75 L25.3636364,23.75 L25.3636364,12.7 L21.2727273,12.7 C19.9171193,12.7 18.8181818,13.8416739 18.8181818,15.25 Z M17.1818182,15.25 C17.1818182,13.8416739 16.0828807,12.7 14.7272727,12.7 L10.6363636,12.7 L10.6363636,23.75 L15.5454545,23.75 C16.1415608,23.75 16.7004436,23.9155703 17.1818182,24.2048595 L17.1818182,15.25 Z" id="icon" fill="#FFFFFF"></path>
    </g>
</svg>