<svg width="197" height="280" viewBox="0 0 197 280" fill="none" xmlns="http://www.w3.org/2000/svg">
<path d="M255.627 109.779C255.627 168.957 204.451 217.184 140.999 217.184C77.547 217.184 26.371 168.957 26.371 109.779C26.371 50.6003 77.547 2.37294 140.999 2.37294C204.451 2.37294 255.627 50.6003 255.627 109.779Z" stroke="#413147" stroke-width="4.74588"/>
<g opacity="0.5">
<circle cx="68.153" cy="137.926" r="1.92647" fill="#7A623C"/>
<circle cx="68.153" cy="149.485" r="1.92647" fill="#7A623C"/>
<circle cx="68.153" cy="161.044" r="1.92647" fill="#7A623C"/>
<circle cx="68.153" cy="172.603" r="1.92647" fill="#7A623C"/>
<circle cx="68.153" cy="184.162" r="1.92647" fill="#7A623C"/>
<circle cx="68.153" cy="195.721" r="1.92647" fill="#7A623C"/>
<circle cx="68.153" cy="207.279" r="1.92647" fill="#7A623C"/>
<circle cx="68.153" cy="218.838" r="1.92647" fill="#7A623C"/>
<circle cx="68.153" cy="230.397" r="1.92647" fill="#7A623C"/>
<circle cx="68.153" cy="241.956" r="1.92647" fill="#7A623C"/>
<circle cx="68.153" cy="253.515" r="1.92647" fill="#7A623C"/>
<circle cx="68.153" cy="265.073" r="1.92647" fill="#7A623C"/>
<circle cx="79.7119" cy="137.926" r="1.92647" fill="#7A623C"/>
<circle cx="79.7119" cy="149.485" r="1.92647" fill="#7A623C"/>
<circle cx="79.7119" cy="161.044" r="1.92647" fill="#7A623C"/>
<circle cx="79.7119" cy="172.603" r="1.92647" fill="#7A623C"/>
<circle cx="79.7119" cy="184.162" r="1.92647" fill="#7A623C"/>
<circle cx="79.7119" cy="195.721" r="1.92647" fill="#7A623C"/>
<circle cx="79.7119" cy="207.279" r="1.92647" fill="#7A623C"/>
<circle cx="79.7119" cy="218.838" r="1.92647" fill="#7A623C"/>
<circle cx="79.7119" cy="230.397" r="1.92647" fill="#7A623C"/>
<circle cx="79.7119" cy="241.956" r="1.92647" fill="#7A623C"/>
<circle cx="79.7119" cy="253.515" r="1.92647" fill="#7A623C"/>
<circle cx="79.7119" cy="265.073" r="1.92647" fill="#7A623C"/>
<circle cx="91.2707" cy="137.926" r="1.92647" fill="#7A623C"/>
<circle cx="91.2707" cy="149.485" r="1.92647" fill="#7A623C"/>
<circle cx="91.2707" cy="161.044" r="1.92647" fill="#7A623C"/>
<circle cx="91.2707" cy="172.603" r="1.92647" fill="#7A623C"/>
<circle cx="91.2707" cy="184.162" r="1.92647" fill="#7A623C"/>
<circle cx="91.2707" cy="195.721" r="1.92647" fill="#7A623C"/>
<circle cx="91.2707" cy="207.279" r="1.92647" fill="#7A623C"/>
<circle cx="91.2707" cy="218.838" r="1.92647" fill="#7A623C"/>
<circle cx="91.2707" cy="230.397" r="1.92647" fill="#7A623C"/>
<circle cx="91.2707" cy="241.956" r="1.92647" fill="#7A623C"/>
<circle cx="91.2707" cy="253.515" r="1.92647" fill="#7A623C"/>
<circle cx="91.2707" cy="265.073" r="1.92647" fill="#7A623C"/>
<circle cx="102.829" cy="137.926" r="1.92647" fill="#7A623C"/>
<circle cx="102.829" cy="149.485" r="1.92647" fill="#7A623C"/>
<circle cx="102.829" cy="161.044" r="1.92647" fill="#7A623C"/>
<circle cx="102.829" cy="172.603" r="1.92647" fill="#7A623C"/>
<circle cx="102.829" cy="184.162" r="1.92647" fill="#7A623C"/>
<circle cx="102.829" cy="195.721" r="1.92647" fill="#7A623C"/>
<circle cx="102.829" cy="207.279" r="1.92647" fill="#7A623C"/>
<circle cx="102.829" cy="218.838" r="1.92647" fill="#7A623C"/>
<circle cx="102.829" cy="230.397" r="1.92647" fill="#7A623C"/>
<circle cx="102.829" cy="241.956" r="1.92647" fill="#7A623C"/>
<circle cx="102.829" cy="253.515" r="1.92647" fill="#7A623C"/>
<circle cx="102.829" cy="265.073" r="1.92647" fill="#7A623C"/>
<circle cx="114.388" cy="137.926" r="1.92647" fill="#7A623C"/>
<circle cx="114.388" cy="149.485" r="1.92647" fill="#7A623C"/>
<circle cx="114.388" cy="161.044" r="1.92647" fill="#7A623C"/>
<circle cx="114.388" cy="172.603" r="1.92647" fill="#7A623C"/>
<circle cx="114.388" cy="184.162" r="1.92647" fill="#7A623C"/>
<circle cx="114.388" cy="195.721" r="1.92647" fill="#7A623C"/>
<circle cx="114.388" cy="207.279" r="1.92647" fill="#7A623C"/>
<circle cx="114.388" cy="218.838" r="1.92647" fill="#7A623C"/>
<circle cx="114.388" cy="230.397" r="1.92647" fill="#7A623C"/>
<circle cx="114.388" cy="241.956" r="1.92647" fill="#7A623C"/>
<circle cx="114.388" cy="253.515" r="1.92647" fill="#7A623C"/>
<circle cx="114.388" cy="265.073" r="1.92647" fill="#7A623C"/>
<circle cx="125.947" cy="137.926" r="1.92647" fill="#7A623C"/>
<circle cx="125.947" cy="149.485" r="1.92647" fill="#7A623C"/>
<circle cx="125.947" cy="161.044" r="1.92647" fill="#7A623C"/>
<circle cx="125.947" cy="172.603" r="1.92647" fill="#7A623C"/>
<circle cx="125.947" cy="184.162" r="1.92647" fill="#7A623C"/>
<circle cx="125.947" cy="195.721" r="1.92647" fill="#7A623C"/>
<circle cx="125.947" cy="207.279" r="1.92647" fill="#7A623C"/>
<circle cx="125.947" cy="218.838" r="1.92647" fill="#7A623C"/>
<circle cx="125.947" cy="230.397" r="1.92647" fill="#7A623C"/>
<circle cx="125.947" cy="241.956" r="1.92647" fill="#7A623C"/>
<circle cx="125.947" cy="253.515" r="1.92647" fill="#7A623C"/>
<circle cx="125.947" cy="265.073" r="1.92647" fill="#7A623C"/>
<circle cx="137.506" cy="137.926" r="1.92647" fill="#7A623C"/>
<circle cx="137.506" cy="149.485" r="1.92647" fill="#7A623C"/>
<circle cx="137.506" cy="161.044" r="1.92647" fill="#7A623C"/>
<circle cx="137.506" cy="172.603" r="1.92647" fill="#7A623C"/>
<circle cx="137.506" cy="184.162" r="1.92647" fill="#7A623C"/>
<circle cx="137.506" cy="195.721" r="1.92647" fill="#7A623C"/>
<circle cx="137.506" cy="207.279" r="1.92647" fill="#7A623C"/>
<circle cx="137.506" cy="218.838" r="1.92647" fill="#7A623C"/>
<circle cx="137.506" cy="230.397" r="1.92647" fill="#7A623C"/>
<circle cx="137.506" cy="241.956" r="1.92647" fill="#7A623C"/>
<circle cx="137.506" cy="253.515" r="1.92647" fill="#7A623C"/>
<circle cx="137.506" cy="265.073" r="1.92647" fill="#7A623C"/>
<circle cx="149.065" cy="137.926" r="1.92647" fill="#7A623C"/>
<circle cx="160.624" cy="137.926" r="1.92647" fill="#7A623C"/>
<circle cx="172.182" cy="137.926" r="1.92647" fill="#7A623C"/>
<circle cx="183.741" cy="137.926" r="1.92647" fill="#7A623C"/>
<circle cx="195.3" cy="137.926" r="1.92647" fill="#7A623C"/>
<circle cx="149.065" cy="149.485" r="1.92647" fill="#7A623C"/>
<circle cx="160.624" cy="149.485" r="1.92647" fill="#7A623C"/>
<circle cx="172.182" cy="149.485" r="1.92647" fill="#7A623C"/>
<circle cx="183.741" cy="149.485" r="1.92647" fill="#7A623C"/>
<circle cx="195.3" cy="149.485" r="1.92647" fill="#7A623C"/>
<circle cx="149.065" cy="161.044" r="1.92647" fill="#7A623C"/>
<circle cx="160.624" cy="161.044" r="1.92647" fill="#7A623C"/>
<circle cx="172.182" cy="161.044" r="1.92647" fill="#7A623C"/>
<circle cx="183.741" cy="161.044" r="1.92647" fill="#7A623C"/>
<circle cx="195.3" cy="161.044" r="1.92647" fill="#7A623C"/>
<circle cx="149.065" cy="172.603" r="1.92647" fill="#7A623C"/>
<circle cx="160.624" cy="172.603" r="1.92647" fill="#7A623C"/>
<circle cx="172.182" cy="172.603" r="1.92647" fill="#7A623C"/>
<circle cx="183.741" cy="172.603" r="1.92647" fill="#7A623C"/>
<circle cx="195.3" cy="172.603" r="1.92647" fill="#7A623C"/>
<circle cx="149.065" cy="184.162" r="1.92647" fill="#7A623C"/>
<circle cx="160.624" cy="184.162" r="1.92647" fill="#7A623C"/>
<circle cx="172.182" cy="184.162" r="1.92647" fill="#7A623C"/>
<circle cx="183.741" cy="184.162" r="1.92647" fill="#7A623C"/>
<circle cx="195.3" cy="184.162" r="1.92647" fill="#7A623C"/>
<circle cx="149.065" cy="195.721" r="1.92647" fill="#7A623C"/>
<circle cx="160.624" cy="195.721" r="1.92647" fill="#7A623C"/>
<circle cx="172.182" cy="195.721" r="1.92647" fill="#7A623C"/>
<circle cx="183.741" cy="195.721" r="1.92647" fill="#7A623C"/>
<circle cx="195.3" cy="195.721" r="1.92647" fill="#7A623C"/>
<circle cx="149.065" cy="207.279" r="1.92647" fill="#7A623C"/>
<circle cx="160.624" cy="207.279" r="1.92647" fill="#7A623C"/>
<circle cx="172.182" cy="207.279" r="1.92647" fill="#7A623C"/>
<circle cx="183.741" cy="207.279" r="1.92647" fill="#7A623C"/>
<circle cx="195.3" cy="207.279" r="1.92647" fill="#7A623C"/>
<circle cx="149.065" cy="218.838" r="1.92647" fill="#7A623C"/>
<circle cx="160.624" cy="218.838" r="1.92647" fill="#7A623C"/>
<circle cx="172.182" cy="218.838" r="1.92647" fill="#7A623C"/>
<circle cx="183.741" cy="218.838" r="1.92647" fill="#7A623C"/>
<circle cx="195.3" cy="218.838" r="1.92647" fill="#7A623C"/>
<circle cx="149.065" cy="230.397" r="1.92647" fill="#7A623C"/>
<circle cx="160.624" cy="230.397" r="1.92647" fill="#7A623C"/>
<circle cx="172.182" cy="230.397" r="1.92647" fill="#7A623C"/>
<circle cx="183.741" cy="230.397" r="1.92647" fill="#7A623C"/>
<circle cx="195.3" cy="230.397" r="1.92647" fill="#7A623C"/>
<circle cx="149.065" cy="241.956" r="1.92647" fill="#7A623C"/>
<circle cx="160.624" cy="241.956" r="1.92647" fill="#7A623C"/>
<circle cx="172.182" cy="241.956" r="1.92647" fill="#7A623C"/>
<circle cx="183.741" cy="241.956" r="1.92647" fill="#7A623C"/>
<circle cx="195.3" cy="241.956" r="1.92647" fill="#7A623C"/>
<circle cx="149.065" cy="253.515" r="1.92647" fill="#7A623C"/>
<circle cx="160.624" cy="253.515" r="1.92647" fill="#7A623C"/>
<circle cx="172.182" cy="253.515" r="1.92647" fill="#7A623C"/>
<circle cx="183.741" cy="253.515" r="1.92647" fill="#7A623C"/>
<circle cx="195.3" cy="253.515" r="1.92647" fill="#7A623C"/>
<circle cx="149.065" cy="265.073" r="1.92647" fill="#7A623C"/>
<circle cx="160.624" cy="265.073" r="1.92647" fill="#7A623C"/>
<circle cx="172.182" cy="265.073" r="1.92647" fill="#7A623C"/>
<circle cx="183.741" cy="265.073" r="1.92647" fill="#7A623C"/>
<circle cx="195.3" cy="265.073" r="1.92647" fill="#7A623C"/>
</g>
<path d="M9.82489 270.309C0.25836 260.747 -4.07207 249.573 5.49446 240.011C15.061 230.449 33.2779 230.774 42.8444 240.336C52.411 249.897 49.7045 265.075 40.1379 274.637C30.5714 284.199 19.3914 279.871 9.82489 270.309Z" fill="#F07A5A"/>
</svg>
