<?xml version="1.0" encoding="UTF-8"?>
<svg width="24px" height="24px" viewBox="0 0 24 24" version="1.1" xmlns="http://www.w3.org/2000/svg" xmlns:xlink="http://www.w3.org/1999/xlink">
    <!-- Generator: Sketch 55.2 (78181) - https://sketchapp.com -->
    <title>Icons/webflow</title>
    <desc>Created with Sketch.</desc>
    <g id="Icons/webflow" stroke="none" stroke-width="1" fill="none" fill-rule="evenodd">
        <path d="M17.8043183,7.97160593 C17.8043183,7.97160593 15.8554884,14.2147756 15.7050132,14.738514 C15.65166,14.2147756 14.2251804,3 14.2251804,3 C10.9054605,3 9.12978888,5.41023872 8.19371156,7.96867456 C8.19371156,7.96867456 5.82348713,14.2307353 5.6308405,14.7551251 C5.61997817,14.2633061 5.26663294,8.03349044 5.26663294,8.03349044 C5.06631879,4.90278576 2.26735177,3.0081427 0,3.0081427 L2.72708394,19.9983715 C6.20941934,19.9869717 8.07454541,17.5819443 9.05822529,15.0267655 C9.05822529,15.0267655 11.1437928,9.50275894 11.2306914,9.25163812 C11.2520966,9.49135916 12.729693,20 12.729693,20 C16.2155427,20 18.0969623,17.7477296 19.1084369,15.2850519 L24,3.00911982 C20.5534464,3.0081427 18.7400761,5.41089014 17.8043183,7.97160593 Z" id="icon" fill="#151515"></path>
    </g>
</svg>